<mxfile host="app.diagrams.net" modified="2022-06-21T07:07:14.718Z" agent="5.0 (Windows)" etag="I7QwdzDl_tU5aEkvVEPK" version="20.0.1" type="github">
  <diagram id="CSZ9fYJXETJe0zHuzwX1" name="Page-1">
    <mxGraphModel dx="782" dy="696" grid="1" gridSize="10" guides="1" tooltips="1" connect="1" arrows="1" fold="1" page="1" pageScale="1" pageWidth="850" pageHeight="1100" math="0" shadow="0">
      <root>
        <mxCell id="0" />
        <mxCell id="1" parent="0" />
      </root>
    </mxGraphModel>
  </diagram>
</mxfile>
